<svg height="64" viewBox="0 0 64 64" width="64" xmlns="http://www.w3.org/2000/svg"><g fill="#000" fill-rule="evenodd"><path d="m31.131 7.869-.132.121-.094-.086c-1.207-1.227-2.812-1.903-4.521-1.903-1.708 0-3.314.676-4.521 1.903-2.479 2.523-2.479 6.627-.003 9.146l8.423 8.648c.189.193.447.302.717.302s.528-.109.716-.302l8.42-8.646c2.479-2.522 2.479-6.626 0-9.149-1.206-1.227-2.812-1.903-4.52-1.903-1.709 0-3.315.676-4.485 1.869zm7.579 7.782c-.001.001-.002.002-.003.003l-7.707 7.913-7.709-7.916c-1.72-1.75-1.72-4.596 0-6.345.827-.842 1.926-1.306 3.094-1.306s2.267.464 3.131 1.34l.808.743c.383.353.971.353 1.354 0l.845-.778c.827-.842 1.926-1.306 3.094-1.306 1.167 0 2.267.463 3.094 1.306 1.719 1.75 1.719 4.596-.001 6.346z"/><path d="m21 60c9.374 0 17-7.626 17-17 0-3.708-1.173-7.233-3.393-10.192-.331-.441-.956-.532-1.4-.2-.442.331-.531.958-.2 1.4 1.958 2.61 2.993 5.72 2.993 8.992 0 8.271-6.729 15-15 15s-15-6.729-15-15 6.729-15 15-15c2.025 0 3.989.396 5.838 1.178.509.214 1.096-.022 1.311-.531s-.023-1.096-.531-1.311c-2.097-.886-4.324-1.336-6.618-1.336-9.374 0-17 7.626-17 17s7.626 17 17 17z"/><path d="m41 26c-9.374 0-17 7.626-17 17 0 3.708 1.173 7.233 3.393 10.192.331.441.958.533 1.4.2.442-.331.531-.958.2-1.4-1.958-2.61-2.993-5.72-2.993-8.992 0-8.271 6.729-15 15-15s15 6.729 15 15-6.729 15-15 15c-2.201 0-4.322-.466-6.304-1.384-.5-.232-1.095-.015-1.328.487-.232.501-.015 1.095.487 1.328 2.247 1.042 4.65 1.57 7.145 1.57 9.374 0 17-7.626 17-17s-7.626-17.001-17-17.001z"/></g></svg>