<svg viewBox="0 0 64 64" xmlns="http://www.w3.org/2000/svg"><g stroke="#000" stroke-linejoin="round" stroke-width="2"><path d="m29.251 45.794a7.752 7.752 0 0 1 2.749 6.285v9.921" fill="none" stroke-linecap="round"/><path d="m8 62v-9.921a7.753 7.753 0 0 1 2.745-6.279" fill="none" stroke-linecap="round"/><path d="m29 50-9 6-9-6v-21.041a7.959 7.959 0 0 1 7.959-7.959h2.082a7.959 7.959 0 0 1 7.959 7.959z" fill="none" stroke-linecap="round"/><path d="m14 28.463v8.537a5 5 0 0 0 5 5h2a5 5 0 0 0 5-5v-8.423" fill="none" stroke-linecap="round"/><path d="m14 37h12" fill="#f4aeab"/><path d="m13 28h4a3.972 3.972 0 0 0 3-1.38 3.972 3.972 0 0 0 3 1.38h4" fill="#ffce56" stroke-linecap="round"/><path d="m52.351 45.167.271.081a4.374 4.374 0 0 1 3.378 4v12.752" fill="none" stroke-linecap="round"/><path d="m46.312 43.005 1.21.526" fill="#6b4f5b" stroke-linecap="round"/><path d="m32 62v-12.753a4.374 4.374 0 0 1 3.378-4 45.373 45.373 0 0 0 5.1-1.717l.985-.428" fill="none" stroke-linecap="round"/><path d="m46 41.259v1.741a2 2 0 0 1 -2 2 2 2 0 0 1 -2-2v-1.8" fill="none" stroke-linecap="round"/><path d="m52 30v27h-4v-16" fill="none" stroke-linecap="round"/><path d="m51 30.328v6.172a4.5 4.5 0 0 1 -4.5 4.5h-5a4.5 4.5 0 0 1 -4.5-4.5v-6.172" fill="none" stroke-linecap="round"/><path d="m50.23 22.211a2.848 2.848 0 0 1 1.77 2.636v5.153h-16v-5.153a2.848 2.848 0 0 1 1.72-2.615" fill="none" stroke-linecap="round"/><path d="m38 24v-2.153a2.847 2.847 0 0 1 2.847-2.847h6.306a2.847 2.847 0 0 1 2.847 2.847v2.153" fill="none" stroke-linecap="round"/><path d="m44 55v-10" fill="none" stroke-linecap="round"/><path d="m41 37 2-1h2l2 1" fill="none" stroke-linecap="round"/><circle cx="5.5" cy="15.5" fill="none" r="2.5" stroke-linecap="round"/><path d="m50 5.463v1.415" fill="none" stroke-linecap="round"/><path d="m50 11.122v1.415" fill="none" stroke-linecap="round"/><path d="m46.463 9h1.415" fill="none" stroke-linecap="round"/><path d="m52.122 9h1.415" fill="none" stroke-linecap="round"/><path d="m27 7-3-3" fill="none" stroke-linecap="round"/><path d="m35 7 3-3" fill="none" stroke-linecap="round"/><path d="m31 7v-4" fill="none" stroke-linecap="round"/></g><circle cx="20" cy="16" r="1"/><circle cx="53" cy="16" r="1"/><path d="m30.907 21.7s5.907-6.251 5.907-7.936a3.174 3.174 0 0 0 -3.282-3.053 3.352 3.352 0 0 0 -2.625 1.238 3.352 3.352 0 0 0 -2.625-1.238 3.174 3.174 0 0 0 -3.282 3.051c0 1.685 5.907 7.938 5.907 7.938z" fill="none" stroke="#000" stroke-linecap="round" stroke-linejoin="round" stroke-width="2"/></svg>